<svg xmlns="http://www.w3.org/2000/svg" xmlns:xlink="http://www.w3.org/1999/xlink" width="180" zoomAndPan="magnify" viewBox="0 0 135 44.999999" height="60" preserveAspectRatio="xMidYMid meet" version="1.0"><defs><g/><clipPath id="14b66f457b"><rect x="0" width="133" y="0" height="35"/></clipPath></defs><g transform="matrix(1, 0, 0, 1, 1, 5)"><g clip-path="url(#14b66f457b)"><g fill="#1dbf73" fill-opacity="1"><g transform="translate(1.190373, 26.114795)"><g><path d="M 0.234375 -18.5625 L 5.046875 -18.5625 C 5.390625 -18.5625 5.726562 -18.566406 6.0625 -18.578125 C 6.394531 -18.585938 6.734375 -18.59375 7.078125 -18.59375 C 7.609375 -18.59375 8.132812 -18.578125 8.65625 -18.546875 C 9.1875 -18.523438 9.703125 -18.457031 10.203125 -18.34375 C 11.191406 -18.09375 11.984375 -17.625 12.578125 -16.9375 C 13.171875 -16.25 13.46875 -15.390625 13.46875 -14.359375 C 13.46875 -13.441406 13.210938 -12.628906 12.703125 -11.921875 C 12.203125 -11.210938 11.507812 -10.722656 10.625 -10.453125 L 9.75 -10.203125 L 10.65625 -10.0625 C 11.914062 -9.863281 12.929688 -9.3125 13.703125 -8.40625 C 14.484375 -7.5 14.875 -6.394531 14.875 -5.09375 C 14.875 -3.78125 14.484375 -2.671875 13.703125 -1.765625 C 12.929688 -0.859375 11.90625 -0.300781 10.625 -0.09375 C 10.207031 -0.0078125 9.796875 0.0390625 9.390625 0.0625 C 8.992188 0.0820312 8.585938 0.09375 8.171875 0.09375 C 7.648438 0.09375 7.125 0.078125 6.59375 0.046875 C 6.070312 0.015625 5.554688 0 5.046875 0 L 0.234375 0 L 0.234375 -0.484375 C 0.671875 -0.503906 1.054688 -0.628906 1.390625 -0.859375 C 1.722656 -1.085938 1.890625 -1.476562 1.890625 -2.03125 L 1.890625 -16.53125 C 1.890625 -17.082031 1.722656 -17.476562 1.390625 -17.71875 C 1.054688 -17.957031 0.671875 -18.085938 0.234375 -18.109375 Z M 4.84375 -9.75 L 4.84375 -0.453125 L 5.046875 -0.453125 C 5.304688 -0.472656 5.578125 -0.476562 5.859375 -0.46875 C 6.140625 -0.457031 6.421875 -0.453125 6.703125 -0.453125 C 8.234375 -0.453125 9.4375 -0.832031 10.3125 -1.59375 C 11.195312 -2.363281 11.640625 -3.5625 11.640625 -5.1875 C 11.640625 -6.101562 11.410156 -6.972656 10.953125 -7.796875 C 10.503906 -8.617188 9.804688 -9.179688 8.859375 -9.484375 C 8.492188 -9.617188 8.113281 -9.695312 7.71875 -9.71875 C 7.332031 -9.75 6.945312 -9.765625 6.5625 -9.765625 C 6.3125 -9.765625 6.054688 -9.757812 5.796875 -9.75 C 5.546875 -9.75 5.296875 -9.75 5.046875 -9.75 Z M 4.84375 -18.140625 L 4.84375 -10.234375 L 5.046875 -10.234375 C 5.179688 -10.234375 5.3125 -10.234375 5.4375 -10.234375 C 5.570312 -10.234375 5.707031 -10.234375 5.84375 -10.234375 C 6.226562 -10.234375 6.65625 -10.238281 7.125 -10.25 C 7.59375 -10.269531 8.015625 -10.347656 8.390625 -10.484375 C 8.910156 -10.640625 9.316406 -10.90625 9.609375 -11.28125 C 9.910156 -11.664062 10.125 -12.097656 10.25 -12.578125 C 10.382812 -13.054688 10.453125 -13.523438 10.453125 -13.984375 C 10.453125 -14.460938 10.382812 -14.953125 10.25 -15.453125 C 10.125 -15.960938 9.910156 -16.425781 9.609375 -16.84375 C 9.316406 -17.269531 8.921875 -17.585938 8.421875 -17.796875 C 8.046875 -17.960938 7.613281 -18.0625 7.125 -18.09375 C 6.632812 -18.125 6.195312 -18.140625 5.8125 -18.140625 Z M 4.84375 -18.140625 "/></g></g></g><g fill="#1dbf73" fill-opacity="1"><g transform="translate(17.068728, 26.114795)"><g><path d="M 0.3125 -11.78125 L 4.640625 -13.15625 L 4.640625 -2.03125 C 4.640625 -1.019531 5.085938 -0.503906 5.984375 -0.484375 L 5.984375 0 L 0.3125 0 L 0.3125 -0.484375 C 1.226562 -0.503906 1.6875 -1.019531 1.6875 -2.03125 L 1.6875 -9.6875 C 1.6875 -10.675781 1.226562 -11.203125 0.3125 -11.265625 Z M 0.71875 -16.625 C 0.71875 -17.15625 0.90625 -17.609375 1.28125 -17.984375 C 1.664062 -18.367188 2.128906 -18.5625 2.671875 -18.5625 C 3.203125 -18.5625 3.660156 -18.367188 4.046875 -17.984375 C 4.441406 -17.609375 4.640625 -17.15625 4.640625 -16.625 C 4.640625 -16.082031 4.4375 -15.609375 4.03125 -15.203125 C 3.632812 -14.804688 3.179688 -14.609375 2.671875 -14.609375 C 2.128906 -14.609375 1.664062 -14.804688 1.28125 -15.203125 C 0.90625 -15.609375 0.71875 -16.082031 0.71875 -16.625 Z M 0.71875 -16.625 "/></g></g></g><g fill="#1dbf73" fill-opacity="1"><g transform="translate(23.775526, 26.114795)"><g><path d="M -0.234375 4.390625 C -0.234375 3.867188 -0.0859375 3.414062 0.203125 3.03125 C 0.503906 2.65625 0.890625 2.34375 1.359375 2.09375 C 1.828125 1.84375 2.300781 1.671875 2.78125 1.578125 L 3.5 1.4375 L 2.8125 1.171875 C 2.175781 0.941406 1.660156 0.625 1.265625 0.21875 C 0.878906 -0.175781 0.6875 -0.71875 0.6875 -1.40625 C 0.6875 -1.90625 0.851562 -2.34375 1.1875 -2.71875 C 1.519531 -3.101562 1.914062 -3.363281 2.375 -3.5 L 2.71875 -3.609375 L 2.46875 -3.84375 C 1.875 -4.375 1.429688 -5.003906 1.140625 -5.734375 C 0.859375 -6.472656 0.71875 -7.242188 0.71875 -8.046875 C 0.71875 -9.160156 0.953125 -10.125 1.421875 -10.9375 C 1.890625 -11.75 2.539062 -12.378906 3.375 -12.828125 C 4.21875 -13.273438 5.175781 -13.5 6.25 -13.5 C 7.09375 -13.5 7.894531 -13.351562 8.65625 -13.0625 L 8.90625 -12.953125 L 8.90625 -13.234375 C 8.96875 -13.828125 9.109375 -14.410156 9.328125 -14.984375 C 9.546875 -15.554688 9.863281 -16.035156 10.28125 -16.421875 C 10.707031 -16.804688 11.222656 -17 11.828125 -17 C 12.273438 -17 12.628906 -16.867188 12.890625 -16.609375 C 13.160156 -16.347656 13.296875 -16 13.296875 -15.5625 C 13.296875 -15.15625 13.175781 -14.8125 12.9375 -14.53125 C 12.695312 -14.257812 12.378906 -14.125 11.984375 -14.125 C 11.898438 -14.125 11.816406 -14.128906 11.734375 -14.140625 C 11.648438 -14.148438 11.5625 -14.15625 11.46875 -14.15625 C 10.988281 -14.15625 10.582031 -14.019531 10.25 -13.75 C 9.925781 -13.488281 9.703125 -13.132812 9.578125 -12.6875 L 9.515625 -12.546875 L 9.625 -12.46875 C 10.351562 -11.945312 10.878906 -11.300781 11.203125 -10.53125 C 11.523438 -9.757812 11.6875 -8.929688 11.6875 -8.046875 C 11.6875 -6.367188 11.191406 -5.03125 10.203125 -4.03125 C 9.222656 -3.039062 7.90625 -2.546875 6.25 -2.546875 C 5.695312 -2.546875 5.144531 -2.613281 4.59375 -2.75 C 4.050781 -2.882812 3.539062 -3.09375 3.0625 -3.375 L 2.984375 -3.4375 L 2.859375 -3.40625 C 2.710938 -3.332031 2.566406 -3.210938 2.421875 -3.046875 C 2.273438 -2.890625 2.203125 -2.695312 2.203125 -2.46875 C 2.203125 -2.289062 2.25 -2.140625 2.34375 -2.015625 C 2.445312 -1.890625 2.5625 -1.78125 2.6875 -1.6875 C 2.820312 -1.59375 2.972656 -1.507812 3.140625 -1.4375 C 3.316406 -1.375 3.492188 -1.316406 3.671875 -1.265625 C 4.035156 -1.171875 4.390625 -1.097656 4.734375 -1.046875 C 5.085938 -0.992188 5.351562 -0.953125 5.53125 -0.921875 C 5.800781 -0.878906 6.066406 -0.835938 6.328125 -0.796875 C 6.597656 -0.765625 6.867188 -0.726562 7.140625 -0.6875 C 7.671875 -0.613281 8.222656 -0.503906 8.796875 -0.359375 C 9.367188 -0.210938 9.898438 -0.0078125 10.390625 0.25 C 10.890625 0.519531 11.296875 0.875 11.609375 1.3125 C 11.929688 1.757812 12.09375 2.316406 12.09375 2.984375 C 12.09375 3.492188 11.960938 3.988281 11.703125 4.46875 C 11.441406 4.945312 11.125 5.367188 10.75 5.734375 C 10.289062 6.171875 9.726562 6.515625 9.0625 6.765625 C 8.40625 7.015625 7.722656 7.1875 7.015625 7.28125 C 6.304688 7.375 5.628906 7.421875 4.984375 7.421875 C 4.484375 7.421875 3.929688 7.375 3.328125 7.28125 C 2.734375 7.1875 2.160156 7.023438 1.609375 6.796875 C 1.066406 6.566406 0.625 6.253906 0.28125 5.859375 C -0.0625 5.460938 -0.234375 4.972656 -0.234375 4.390625 Z M 6.1875 -13.1875 C 5.613281 -13.1875 5.171875 -13 4.859375 -12.625 C 4.546875 -12.25 4.316406 -11.78125 4.171875 -11.21875 C 4.023438 -10.65625 3.9375 -10.085938 3.90625 -9.515625 C 3.882812 -8.941406 3.875 -8.453125 3.875 -8.046875 C 3.875 -7.648438 3.890625 -7.160156 3.921875 -6.578125 C 3.960938 -5.992188 4.050781 -5.421875 4.1875 -4.859375 C 4.332031 -4.296875 4.566406 -3.820312 4.890625 -3.4375 C 5.222656 -3.050781 5.675781 -2.859375 6.25 -2.859375 C 6.820312 -2.859375 7.265625 -3.050781 7.578125 -3.4375 C 7.890625 -3.820312 8.117188 -4.296875 8.265625 -4.859375 C 8.410156 -5.421875 8.492188 -5.992188 8.515625 -6.578125 C 8.546875 -7.160156 8.5625 -7.648438 8.5625 -8.046875 C 8.5625 -8.453125 8.539062 -8.945312 8.5 -9.53125 C 8.46875 -10.113281 8.378906 -10.679688 8.234375 -11.234375 C 8.097656 -11.785156 7.863281 -12.25 7.53125 -12.625 C 7.207031 -13 6.757812 -13.1875 6.1875 -13.1875 Z M 3.984375 1.609375 C 3.390625 1.816406 2.894531 2.171875 2.5 2.671875 C 2.113281 3.179688 1.921875 3.769531 1.921875 4.4375 C 1.921875 5.09375 2.109375 5.597656 2.484375 5.953125 C 2.867188 6.316406 3.328125 6.578125 3.859375 6.734375 C 4.398438 6.890625 4.910156 6.96875 5.390625 6.96875 C 5.941406 6.96875 6.492188 6.867188 7.046875 6.671875 C 7.597656 6.484375 8.0625 6.175781 8.4375 5.75 C 8.8125 5.332031 9 4.78125 9 4.09375 C 9 3.675781 8.878906 3.34375 8.640625 3.09375 C 8.398438 2.84375 8.101562 2.640625 7.75 2.484375 C 7.394531 2.335938 7.046875 2.226562 6.703125 2.15625 C 6.535156 2.113281 6.375 2.070312 6.21875 2.03125 C 6.0625 2 5.914062 1.972656 5.78125 1.953125 C 5.519531 1.890625 5.242188 1.828125 4.953125 1.765625 C 4.671875 1.710938 4.382812 1.648438 4.09375 1.578125 L 4.046875 1.578125 Z M 3.984375 1.609375 "/></g></g></g><g fill="#000000" fill-opacity="1"><g transform="translate(36.733339, 26.114795)"><g><path d="M 1.640625 -12.859375 L 0.09375 -12.859375 L 0.09375 -13.328125 L 1.640625 -13.328125 L 1.640625 -15.046875 C 1.640625 -16.054688 1.875 -16.882812 2.34375 -17.53125 C 2.820312 -18.1875 3.453125 -18.671875 4.234375 -18.984375 C 5.023438 -19.296875 5.878906 -19.453125 6.796875 -19.453125 C 7.285156 -19.453125 7.785156 -19.394531 8.296875 -19.28125 C 8.816406 -19.164062 9.28125 -18.972656 9.6875 -18.703125 C 10.101562 -18.441406 10.390625 -18.070312 10.546875 -17.59375 C 10.585938 -17.519531 10.613281 -17.4375 10.625 -17.34375 C 10.644531 -17.257812 10.65625 -17.171875 10.65625 -17.078125 C 10.65625 -16.691406 10.503906 -16.390625 10.203125 -16.171875 C 9.898438 -15.953125 9.546875 -15.84375 9.140625 -15.84375 C 8.722656 -15.84375 8.390625 -15.984375 8.140625 -16.265625 C 7.890625 -16.554688 7.660156 -16.882812 7.453125 -17.25 C 7.390625 -17.34375 7.332031 -17.441406 7.28125 -17.546875 C 7.238281 -17.648438 7.195312 -17.742188 7.15625 -17.828125 C 7.101562 -17.921875 7.046875 -18.007812 6.984375 -18.09375 C 6.929688 -18.175781 6.875 -18.257812 6.8125 -18.34375 C 6.695312 -18.488281 6.554688 -18.613281 6.390625 -18.71875 C 6.234375 -18.832031 6.039062 -18.890625 5.8125 -18.890625 C 5.445312 -18.890625 5.179688 -18.726562 5.015625 -18.40625 C 4.859375 -18.09375 4.753906 -17.773438 4.703125 -17.453125 C 4.617188 -17.109375 4.578125 -16.765625 4.578125 -16.421875 C 4.578125 -16.078125 4.578125 -15.8125 4.578125 -15.625 L 4.578125 -13.328125 L 7.65625 -13.328125 L 7.65625 -12.859375 L 4.578125 -12.859375 L 4.578125 -2.03125 C 4.578125 -1.019531 5.03125 -0.503906 5.9375 -0.484375 L 5.9375 0 L 0.265625 0 L 0.265625 -0.484375 C 1.179688 -0.503906 1.640625 -1.019531 1.640625 -2.03125 Z M 1.640625 -12.859375 "/></g></g></g><g fill="#000000" fill-opacity="1"><g transform="translate(45.10248, 26.114795)"><g><path d="M 0.203125 -18.625 L 4.53125 -19.96875 L 4.53125 -2.03125 C 4.53125 -1.019531 4.976562 -0.503906 5.875 -0.484375 L 5.875 0 L 0.203125 0 L 0.203125 -0.484375 C 1.117188 -0.503906 1.578125 -1.019531 1.578125 -2.03125 L 1.578125 -16.53125 C 1.578125 -17.53125 1.117188 -18.054688 0.203125 -18.109375 Z M 0.203125 -18.625 "/></g></g></g><g fill="#000000" fill-opacity="1"><g transform="translate(51.751954, 26.114795)"><g><path d="M 1.546875 -11.296875 C 1.546875 -12.285156 1.085938 -12.804688 0.171875 -12.859375 L 0.171875 -13.328125 L 4.5 -13.328125 L 4.5 -3.84375 C 4.5 -3.039062 4.679688 -2.378906 5.046875 -1.859375 C 5.410156 -1.347656 6.03125 -1.09375 6.90625 -1.09375 C 7.664062 -1.09375 8.289062 -1.367188 8.78125 -1.921875 C 9.269531 -2.472656 9.515625 -3.113281 9.515625 -3.84375 L 9.515625 -11.296875 C 9.515625 -11.804688 9.410156 -12.191406 9.203125 -12.453125 C 9.003906 -12.710938 8.660156 -12.847656 8.171875 -12.859375 L 8.171875 -13.328125 L 12.46875 -13.328125 L 12.46875 -3.84375 C 12.46875 -3.382812 12.5625 -2.96875 12.75 -2.59375 C 12.9375 -2.21875 13.300781 -2.015625 13.84375 -1.984375 L 13.84375 -1.4375 L 9.515625 -0.09375 L 9.515625 -2.03125 L 9.171875 -1.609375 C 8.734375 -1.054688 8.175781 -0.648438 7.5 -0.390625 C 6.832031 -0.128906 6.144531 0 5.4375 0 C 4.195312 0 3.238281 -0.304688 2.5625 -0.921875 C 1.882812 -1.546875 1.546875 -2.5 1.546875 -3.78125 Z M 1.546875 -11.296875 "/></g></g></g><g fill="#000000" fill-opacity="1"><g transform="translate(66.197253, 26.114795)"><g><path d="M 0.71875 -6.5625 C 0.71875 -7.800781 0.941406 -8.945312 1.390625 -10 C 1.835938 -11.050781 2.5 -11.894531 3.375 -12.53125 C 4.257812 -13.175781 5.347656 -13.5 6.640625 -13.5 C 7.773438 -13.5 8.738281 -13.242188 9.53125 -12.734375 C 10.320312 -12.234375 10.925781 -11.539062 11.34375 -10.65625 C 11.769531 -9.78125 11.984375 -8.796875 11.984375 -7.703125 L 11.984375 -7.625 L 3.8125 -7.625 L 3.8125 -7.21875 C 3.8125 -6.601562 3.882812 -5.972656 4.03125 -5.328125 C 4.1875 -4.679688 4.425781 -4.078125 4.75 -3.515625 C 5.082031 -2.953125 5.507812 -2.492188 6.03125 -2.140625 C 6.550781 -1.785156 7.195312 -1.609375 7.96875 -1.609375 C 8.675781 -1.609375 9.367188 -1.773438 10.046875 -2.109375 C 10.722656 -2.441406 11.269531 -2.894531 11.6875 -3.46875 L 11.953125 -3.296875 C 11.378906 -2.191406 10.710938 -1.316406 9.953125 -0.671875 C 9.203125 -0.0351562 8.148438 0.28125 6.796875 0.28125 C 5.472656 0.28125 4.363281 -0.0195312 3.46875 -0.625 C 2.570312 -1.238281 1.890625 -2.066406 1.421875 -3.109375 C 0.953125 -4.148438 0.71875 -5.300781 0.71875 -6.5625 Z M 3.875 -8.28125 L 3.875 -8.078125 L 8.90625 -8.078125 L 8.90625 -8.28125 C 8.894531 -8.625 8.84375 -9.054688 8.75 -9.578125 C 8.664062 -10.109375 8.53125 -10.640625 8.34375 -11.171875 C 8.164062 -11.710938 7.921875 -12.160156 7.609375 -12.515625 C 7.304688 -12.878906 6.9375 -13.0625 6.5 -13.0625 C 6.039062 -13.0625 5.65625 -12.878906 5.34375 -12.515625 C 5.03125 -12.160156 4.765625 -11.71875 4.546875 -11.1875 C 4.335938 -10.664062 4.179688 -10.132812 4.078125 -9.59375 C 3.972656 -9.0625 3.90625 -8.625 3.875 -8.28125 Z M 3.875 -8.28125 "/></g></g></g><g fill="#000000" fill-opacity="1"><g transform="translate(79.496104, 26.114795)"><g><path d="M 0.234375 -11.78125 L 4.5625 -13.15625 L 4.5625 -11.40625 L 4.90625 -11.921875 C 5.34375 -12.535156 5.894531 -12.953125 6.5625 -13.171875 C 7.226562 -13.390625 7.914062 -13.5 8.625 -13.5 C 9.863281 -13.5 10.875 -13.195312 11.65625 -12.59375 C 12.445312 -11.988281 12.84375 -11.039062 12.84375 -9.75 L 12.84375 -2.03125 C 12.84375 -1.519531 12.945312 -1.140625 13.15625 -0.890625 C 13.363281 -0.640625 13.707031 -0.503906 14.1875 -0.484375 L 14.1875 0 L 8.515625 0 L 8.515625 -0.484375 C 9.429688 -0.503906 9.890625 -1.019531 9.890625 -2.03125 L 9.890625 -9.6875 C 9.890625 -10.1875 9.796875 -10.664062 9.609375 -11.125 C 9.429688 -11.59375 9.160156 -11.984375 8.796875 -12.296875 C 8.429688 -12.617188 7.953125 -12.78125 7.359375 -12.78125 C 6.867188 -12.78125 6.40625 -12.617188 5.96875 -12.296875 C 5.539062 -11.972656 5.195312 -11.570312 4.9375 -11.09375 C 4.6875 -10.613281 4.5625 -10.144531 4.5625 -9.6875 L 4.5625 -2.03125 C 4.5625 -1.019531 5.007812 -0.503906 5.90625 -0.484375 L 5.90625 0 L 0.234375 0 L 0.234375 -0.484375 C 1.148438 -0.503906 1.609375 -1.019531 1.609375 -2.03125 L 1.609375 -9.6875 C 1.609375 -10.675781 1.148438 -11.203125 0.234375 -11.265625 Z M 0.234375 -11.78125 "/></g></g></g><g fill="#000000" fill-opacity="1"><g transform="translate(94.285335, 26.114795)"><g><path d="M 6.46875 0.28125 C 5.132812 0.28125 4.023438 -0.0195312 3.140625 -0.625 C 2.265625 -1.238281 1.609375 -2.066406 1.171875 -3.109375 C 0.734375 -4.148438 0.515625 -5.3125 0.515625 -6.59375 C 0.515625 -8.695312 1.046875 -10.375 2.109375 -11.625 C 3.171875 -12.875 4.769531 -13.5 6.90625 -13.5 C 7.570312 -13.5 8.25 -13.378906 8.9375 -13.140625 C 9.625 -12.898438 10.203125 -12.535156 10.671875 -12.046875 C 11.140625 -11.554688 11.375 -10.953125 11.375 -10.234375 C 11.375 -9.847656 11.226562 -9.535156 10.9375 -9.296875 C 10.65625 -9.054688 10.316406 -8.9375 9.921875 -8.9375 C 9.128906 -8.9375 8.628906 -9.347656 8.421875 -10.171875 C 8.390625 -10.304688 8.351562 -10.441406 8.3125 -10.578125 C 8.269531 -10.722656 8.222656 -10.875 8.171875 -11.03125 C 8.035156 -11.507812 7.820312 -11.960938 7.53125 -12.390625 C 7.25 -12.816406 6.820312 -13.03125 6.25 -13.03125 C 5.675781 -13.03125 5.210938 -12.816406 4.859375 -12.390625 C 4.503906 -11.960938 4.234375 -11.429688 4.046875 -10.796875 C 3.867188 -10.171875 3.742188 -9.535156 3.671875 -8.890625 C 3.609375 -8.253906 3.578125 -7.726562 3.578125 -7.3125 C 3.578125 -6.675781 3.65625 -6.019531 3.8125 -5.34375 C 3.976562 -4.664062 4.234375 -4.035156 4.578125 -3.453125 C 4.921875 -2.867188 5.367188 -2.394531 5.921875 -2.03125 C 6.484375 -1.664062 7.15625 -1.484375 7.9375 -1.484375 C 8.570312 -1.484375 9.1875 -1.625 9.78125 -1.90625 C 10.382812 -2.195312 10.867188 -2.613281 11.234375 -3.15625 L 11.546875 -2.953125 C 11.015625 -1.898438 10.347656 -1.097656 9.546875 -0.546875 C 8.742188 0.00390625 7.71875 0.28125 6.46875 0.28125 Z M 6.46875 0.28125 "/></g></g></g><g fill="#000000" fill-opacity="1"><g transform="translate(106.896323, 26.114795)"><g><path d="M 0.71875 -6.5625 C 0.71875 -7.800781 0.941406 -8.945312 1.390625 -10 C 1.835938 -11.050781 2.5 -11.894531 3.375 -12.53125 C 4.257812 -13.175781 5.347656 -13.5 6.640625 -13.5 C 7.773438 -13.5 8.738281 -13.242188 9.53125 -12.734375 C 10.320312 -12.234375 10.925781 -11.539062 11.34375 -10.65625 C 11.769531 -9.78125 11.984375 -8.796875 11.984375 -7.703125 L 11.984375 -7.625 L 3.8125 -7.625 L 3.8125 -7.21875 C 3.8125 -6.601562 3.882812 -5.972656 4.03125 -5.328125 C 4.1875 -4.679688 4.425781 -4.078125 4.75 -3.515625 C 5.082031 -2.953125 5.507812 -2.492188 6.03125 -2.140625 C 6.550781 -1.785156 7.195312 -1.609375 7.96875 -1.609375 C 8.675781 -1.609375 9.367188 -1.773438 10.046875 -2.109375 C 10.722656 -2.441406 11.269531 -2.894531 11.6875 -3.46875 L 11.953125 -3.296875 C 11.378906 -2.191406 10.710938 -1.316406 9.953125 -0.671875 C 9.203125 -0.0351562 8.148438 0.28125 6.796875 0.28125 C 5.472656 0.28125 4.363281 -0.0195312 3.46875 -0.625 C 2.570312 -1.238281 1.890625 -2.066406 1.421875 -3.109375 C 0.953125 -4.148438 0.71875 -5.300781 0.71875 -6.5625 Z M 3.875 -8.28125 L 3.875 -8.078125 L 8.90625 -8.078125 L 8.90625 -8.28125 C 8.894531 -8.625 8.84375 -9.054688 8.75 -9.578125 C 8.664062 -10.109375 8.53125 -10.640625 8.34375 -11.171875 C 8.164062 -11.710938 7.921875 -12.160156 7.609375 -12.515625 C 7.304688 -12.878906 6.9375 -13.0625 6.5 -13.0625 C 6.039062 -13.0625 5.65625 -12.878906 5.34375 -12.515625 C 5.03125 -12.160156 4.765625 -11.71875 4.546875 -11.1875 C 4.335938 -10.664062 4.179688 -10.132812 4.078125 -9.59375 C 3.972656 -9.0625 3.90625 -8.625 3.875 -8.28125 Z M 3.875 -8.28125 "/></g></g></g><g fill="#000000" fill-opacity="1"><g transform="translate(120.195174, 26.114795)"><g><path d="M 0.34375 -11.78125 L 4.671875 -13.15625 L 4.671875 -11.125 L 5.046875 -11.75 C 5.410156 -12.34375 5.890625 -12.785156 6.484375 -13.078125 C 7.085938 -13.378906 7.742188 -13.53125 8.453125 -13.53125 C 9.003906 -13.53125 9.53125 -13.425781 10.03125 -13.21875 C 10.539062 -13.019531 10.941406 -12.671875 11.234375 -12.171875 C 11.328125 -12.023438 11.398438 -11.863281 11.453125 -11.6875 C 11.515625 -11.519531 11.546875 -11.347656 11.546875 -11.171875 C 11.546875 -10.796875 11.394531 -10.492188 11.09375 -10.265625 C 10.800781 -10.035156 10.46875 -9.921875 10.09375 -9.921875 C 9.875 -9.921875 9.691406 -9.945312 9.546875 -10 C 9.410156 -10.0625 9.296875 -10.128906 9.203125 -10.203125 C 9.085938 -10.296875 8.984375 -10.398438 8.890625 -10.515625 C 8.847656 -10.578125 8.796875 -10.640625 8.734375 -10.703125 C 8.679688 -10.765625 8.632812 -10.828125 8.59375 -10.890625 C 8.40625 -11.160156 8.179688 -11.414062 7.921875 -11.65625 C 7.660156 -11.90625 7.265625 -12.03125 6.734375 -12.03125 C 6.085938 -12.03125 5.582031 -11.785156 5.21875 -11.296875 C 4.851562 -10.816406 4.671875 -10.28125 4.671875 -9.6875 L 4.671875 -2.03125 C 4.671875 -1.019531 5.117188 -0.503906 6.015625 -0.484375 L 6.015625 0 L 0.34375 0 L 0.34375 -0.484375 C 1.257812 -0.503906 1.71875 -1.019531 1.71875 -2.03125 L 1.71875 -9.6875 C 1.71875 -10.675781 1.257812 -11.203125 0.34375 -11.265625 Z M 0.34375 -11.78125 "/></g></g></g></g></g></svg>